<svg xmlns="http://www.w3.org/2000/svg" xmlns:xlink="http://www.w3.org/1999/xlink" viewBox="0 0 1133.86 425.2"><defs><style>.cls-1,.cls-10,.cls-109,.cls-112,.cls-13,.cls-139,.cls-16,.cls-22,.cls-26,.cls-29,.cls-32,.cls-42,.cls-47,.cls-50,.cls-56,.cls-62,.cls-7,.cls-72,.cls-89,.cls-97{fill:none;}.cls-2{isolation:isolate;}.cls-3{fill:#8f9194;}.cls-4{clip-path:url(#clip-path);}.cls-5{clip-path:url(#clip-path-2);}.cls-6{clip-path:url(#clip-path-4);}.cls-7{stroke:#fff;stroke-width:0.1px;}.cls-10,.cls-109,.cls-112,.cls-13,.cls-16,.cls-22,.cls-26,.cls-29,.cls-32,.cls-42,.cls-47,.cls-50,.cls-56,.cls-62,.cls-7,.cls-72,.cls-89,.cls-97{stroke-linejoin:round;}.cls-8{clip-path:url(#clip-path-6);}.cls-9{fill:#fbc6b1;}.cls-10{stroke:#fbc6b1;}.cls-11{clip-path:url(#clip-path-7);}.cls-12{fill:#f15d43;}.cls-13{stroke:#f15d43;}.cls-14{clip-path:url(#clip-path-8);}.cls-15{fill:#fee9df;}.cls-16{stroke:#fee9df;}.cls-17{clip-path:url(#clip-path-9);}.cls-18{clip-path:url(#clip-path-10);}.cls-19{clip-path:url(#clip-path-11);}.cls-20{clip-path:url(#clip-path-12);}.cls-21{fill:#fddbcc;}.cls-22{stroke:#fddbcc;}.cls-23{clip-path:url(#clip-path-13);}.cls-24{clip-path:url(#clip-path-14);}.cls-25{fill:#f48062;}.cls-26{stroke:#f48062;}.cls-27{clip-path:url(#clip-path-15);}.cls-28{fill:#fcd1be;}.cls-29{stroke:#fcd1be;}.cls-30{clip-path:url(#clip-path-16);}.cls-31{fill:#f68c6e;}.cls-32{stroke:#f68c6e;}.cls-33{clip-path:url(#clip-path-17);}.cls-34{clip-path:url(#clip-path-18);}.cls-35{clip-path:url(#clip-path-19);}.cls-36{clip-path:url(#clip-path-20);}.cls-37{clip-path:url(#clip-path-21);}.cls-38{clip-path:url(#clip-path-22);}.cls-39{clip-path:url(#clip-path-23);}.cls-40{clip-path:url(#clip-path-24);}.cls-41{fill:#f7977a;}.cls-42{stroke:#f7977a;}.cls-43{clip-path:url(#clip-path-25);}.cls-44{clip-path:url(#clip-path-26);}.cls-45{clip-path:url(#clip-path-27);}.cls-46{fill:#fee3d6;}.cls-47{stroke:#fee3d6;}.cls-48{clip-path:url(#clip-path-28);}.cls-49{fill:#ea372b;}.cls-50{stroke:#ea372b;}.cls-51{clip-path:url(#clip-path-29);}.cls-52{clip-path:url(#clip-path-30);}.cls-53{clip-path:url(#clip-path-31);}.cls-54{clip-path:url(#clip-path-32);}.cls-55{fill:#fabaa1;}.cls-56{stroke:#fabaa1;}.cls-57{clip-path:url(#clip-path-33);}.cls-58{clip-path:url(#clip-path-34);}.cls-59{clip-path:url(#clip-path-35);}.cls-60{clip-path:url(#clip-path-36);}.cls-61{fill:#fff0e8;}.cls-62{stroke:#fff0e8;}.cls-63{clip-path:url(#clip-path-37);}.cls-64{clip-path:url(#clip-path-38);}.cls-65{clip-path:url(#clip-path-39);}.cls-66{clip-path:url(#clip-path-40);}.cls-67{clip-path:url(#clip-path-41);}.cls-68{clip-path:url(#clip-path-42);}.cls-69{clip-path:url(#clip-path-43);}.cls-70{clip-path:url(#clip-path-44);}.cls-71{fill:#f9ae94;}.cls-72{stroke:#f9ae94;}.cls-73{clip-path:url(#clip-path-45);}.cls-74{clip-path:url(#clip-path-46);}.cls-75{clip-path:url(#clip-path-47);}.cls-76{clip-path:url(#clip-path-48);}.cls-77{clip-path:url(#clip-path-49);}.cls-78{clip-path:url(#clip-path-50);}.cls-79{clip-path:url(#clip-path-51);}.cls-80{clip-path:url(#clip-path-52);}.cls-81{clip-path:url(#clip-path-53);}.cls-82{clip-path:url(#clip-path-54);}.cls-83{clip-path:url(#clip-path-55);}.cls-84{clip-path:url(#clip-path-56);}.cls-85{clip-path:url(#clip-path-57);}.cls-86{clip-path:url(#clip-path-58);}.cls-87{clip-path:url(#clip-path-59);}.cls-88{fill:#ef4230;}.cls-89{stroke:#ef4230;}.cls-90{clip-path:url(#clip-path-60);}.cls-91{clip-path:url(#clip-path-61);}.cls-92{clip-path:url(#clip-path-62);}.cls-93{clip-path:url(#clip-path-63);}.cls-94{clip-path:url(#clip-path-64);}.cls-95{clip-path:url(#clip-path-65);}.cls-96{fill:#e02d26;}.cls-97{stroke:#e02d26;}.cls-98{clip-path:url(#clip-path-66);}.cls-99{clip-path:url(#clip-path-67);}.cls-100{clip-path:url(#clip-path-68);}.cls-101{clip-path:url(#clip-path-69);}.cls-102{clip-path:url(#clip-path-70);}.cls-103{clip-path:url(#clip-path-71);}.cls-104{clip-path:url(#clip-path-72);}.cls-105{clip-path:url(#clip-path-73);}.cls-106{clip-path:url(#clip-path-74);}.cls-107{clip-path:url(#clip-path-75);}.cls-108{fill:#650913;}.cls-109{stroke:#650913;}.cls-110{clip-path:url(#clip-path-76);}.cls-111{fill:#a91f23;}.cls-112{stroke:#a91f23;}.cls-113{clip-path:url(#clip-path-77);}.cls-114{clip-path:url(#clip-path-78);}.cls-115{clip-path:url(#clip-path-79);}.cls-116{clip-path:url(#clip-path-80);}.cls-117{clip-path:url(#clip-path-81);}.cls-118{clip-path:url(#clip-path-82);}.cls-119{clip-path:url(#clip-path-83);}.cls-120{clip-path:url(#clip-path-84);}.cls-121{clip-path:url(#clip-path-85);}.cls-122{clip-path:url(#clip-path-86);}.cls-123{clip-path:url(#clip-path-87);}.cls-124{clip-path:url(#clip-path-88);}.cls-125{clip-path:url(#clip-path-89);}.cls-126{clip-path:url(#clip-path-90);}.cls-127{clip-path:url(#clip-path-91);}.cls-128{clip-path:url(#clip-path-92);}.cls-129{clip-path:url(#clip-path-93);}.cls-130{clip-path:url(#clip-path-94);}.cls-131{clip-path:url(#clip-path-95);}.cls-132{clip-path:url(#clip-path-96);}.cls-133{clip-path:url(#clip-path-97);}.cls-134{clip-path:url(#clip-path-98);}.cls-135{clip-path:url(#clip-path-99);}.cls-136{clip-path:url(#clip-path-100);}.cls-137{clip-path:url(#clip-path-101);}.cls-138{clip-path:url(#clip-path-102);}.cls-139{stroke:#000;stroke-linecap:square;stroke-miterlimit:10;stroke-width:0.8px;}.cls-140{fill:#d5d7d8;mix-blend-mode:darken;}</style><clipPath id="clip-path"><rect class="cls-1" x="-151.15" y="-460.26" width="1102.21" height="1102.21" transform="translate(20.09 245.5) rotate(-34.95)"/></clipPath><clipPath id="clip-path-2"><rect class="cls-1" x="-379.45" y="-673.47" width="1553.86" height="1553.86" transform="translate(12.42 246.36) rotate(-34.95)"/></clipPath><clipPath id="clip-path-4"><rect class="cls-1" x="-190.94" y="-497.44" width="1204.24" height="1173.16" transform="translate(23.09 251.62) rotate(-34.95)"/></clipPath><clipPath id="clip-path-6"><rect class="cls-1" x="190.78" y="75.68" width="12.95" height="12.95" transform="translate(-11.49 127.81) rotate(-34.95)"/></clipPath><clipPath id="clip-path-7"><rect class="cls-1" x="938.85" y="142.28" width="12.95" height="12.95" transform="translate(85.27 568.36) rotate(-34.95)"/></clipPath><clipPath id="clip-path-8"><rect class="cls-1" x="907.84" y="274.4" width="12.95" height="12.95" transform="translate(3.99 574.42) rotate(-34.95)"/></clipPath><clipPath id="clip-path-9"><rect class="cls-1" x="71.78" y="231.02" width="12.95" height="12.95" transform="translate(-121.93 87.66) rotate(-34.95)"/></clipPath><clipPath id="clip-path-10"><rect class="cls-1" x="186.73" y="385.27" width="12.95" height="12.95" transform="translate(-189.57 181.32) rotate(-34.95)"/></clipPath><clipPath id="clip-path-11"><rect class="cls-1" x="418.71" y="312.43" width="12.95" height="12.95" transform="translate(-106.01 301.08) rotate(-34.95)"/></clipPath><clipPath id="clip-path-12"><rect class="cls-1" x="143.49" y="375.44" width="12.95" height="12.95" transform="translate(-191.74 154.78) rotate(-34.95)"/></clipPath><clipPath id="clip-path-13"><rect class="cls-1" x="282.04" y="183.51" width="12.95" height="12.95" transform="translate(-56.8 199.54) rotate(-34.95)"/></clipPath><clipPath id="clip-path-14"><rect class="cls-1" x="228.91" y="210.37" width="12.95" height="12.95" transform="translate(-81.77 173.94) rotate(-34.95)"/></clipPath><clipPath id="clip-path-15"><rect class="cls-1" x="327.29" y="117.11" width="12.95" height="12.95" transform="translate(-10.61 213.48) rotate(-34.95)"/></clipPath><clipPath id="clip-path-16"><rect class="cls-1" x="284.55" y="106.22" width="12.95" height="12.95" transform="translate(-12.07 187.04) rotate(-34.95)"/></clipPath><clipPath id="clip-path-17"><rect class="cls-1" x="224.9" y="59.54" width="12.95" height="12.95" transform="translate(3.91 144.45) rotate(-34.95)"/></clipPath><clipPath id="clip-path-18"><rect class="cls-1" x="1034.82" y="185.15" width="12.95" height="12.95" transform="translate(78.01 631.06) rotate(-34.95)"/></clipPath><clipPath id="clip-path-19"><rect class="cls-1" x="200.23" y="120.4" width="12.95" height="12.95" transform="translate(-35.41 141.29) rotate(-34.95)"/></clipPath><clipPath id="clip-path-20"><rect class="cls-1" x="570.98" y="132.75" width="12.95" height="12.95" transform="translate(24.38 355.9) rotate(-34.95)"/></clipPath><clipPath id="clip-path-21"><rect class="cls-1" x="1051.36" y="140.23" width="12.95" height="12.95" transform="translate(106.73 632.44) rotate(-34.95)"/></clipPath><clipPath id="clip-path-22"><rect class="cls-1" x="993.88" y="248.39" width="12.95" height="12.95" transform="translate(34.41 619.02) rotate(-34.95)"/></clipPath><clipPath id="clip-path-23"><rect class="cls-1" x="437.72" y="221.43" width="12.95" height="12.95" transform="translate(-50.45 295.56) rotate(-34.95)"/></clipPath><clipPath id="clip-path-24"><rect class="cls-1" x="229.43" y="268.53" width="12.95" height="12.95" transform="translate(-114.99 184.73) rotate(-34.95)"/></clipPath><clipPath id="clip-path-25"><rect class="cls-1" x="832.78" y="129.48" width="12.95" height="12.95" transform="translate(73.47 505.29) rotate(-34.95)"/></clipPath><clipPath id="clip-path-26"><rect class="cls-1" x="306.06" y="364.22" width="12.95" height="12.95" transform="translate(-155.99 245.89) rotate(-34.95)"/></clipPath><clipPath id="clip-path-27"><rect class="cls-1" x="331.79" y="170.58" width="12.95" height="12.95" transform="translate(-40.42 225.71) rotate(-34.95)"/></clipPath><clipPath id="clip-path-28"><rect class="cls-1" x="963.13" y="180.85" width="12.95" height="12.95" transform="translate(67.55 589.22) rotate(-34.95)"/></clipPath><clipPath id="clip-path-29"><rect class="cls-1" x="963.57" y="147.04" width="12.95" height="12.95" transform="translate(87 583.38) rotate(-34.95)"/></clipPath><clipPath id="clip-path-30"><rect class="cls-1" x="245.71" y="158.66" width="12.95" height="12.95" transform="translate(-49.12 174.25) rotate(-34.95)"/></clipPath><clipPath id="clip-path-31"><rect class="cls-1" x="1010.02" y="99.81" width="12.95" height="12.95" transform="translate(122.43 601.47) rotate(-34.95)"/></clipPath><clipPath id="clip-path-32"><rect class="cls-1" x="449.32" y="100.08" width="12.95" height="12.95" transform="translate(21.16 280.32) rotate(-34.95)"/></clipPath><clipPath id="clip-path-33"><rect class="cls-1" x="446.02" y="17.73" width="12.95" height="12.95" transform="translate(67.73 263.58) rotate(-34.95)"/></clipPath><clipPath id="clip-path-34"><rect class="cls-1" x="312.42" y="234.4" width="12.95" height="12.95" transform="translate(-80.47 226.11) rotate(-34.95)"/></clipPath><clipPath id="clip-path-35"><rect class="cls-1" x="288.05" y="63.37" width="12.95" height="12.95" transform="translate(13.1 181.32) rotate(-34.95)"/></clipPath><clipPath id="clip-path-36"><rect class="cls-1" x="231.69" y="370.23" width="12.95" height="12.95" transform="translate(-172.84 204.37) rotate(-34.95)"/></clipPath><clipPath id="clip-path-37"><rect class="cls-1" x="525.84" y="162.06" width="12.95" height="12.95" transform="translate(-0.55 335.33) rotate(-34.95)"/></clipPath><clipPath id="clip-path-38"><rect class="cls-1" x="22.91" y="206.88" width="12.95" height="12.95" transform="translate(-116.92 55.31) rotate(-34.95)"/></clipPath><clipPath id="clip-path-39"><rect class="cls-1" x="184.86" y="338.87" width="12.95" height="12.95" transform="translate(-163.33 171.88) rotate(-34.95)"/></clipPath><clipPath id="clip-path-40"><rect class="cls-1" x="174.61" y="315.48" width="12.95" height="12.95" transform="translate(-151.77 161.8) rotate(-34.95)"/></clipPath><clipPath id="clip-path-41"><rect class="cls-1" x="219.69" y="192.09" width="12.95" height="12.95" transform="translate(-72.96 165.37) rotate(-34.95)"/></clipPath><clipPath id="clip-path-42"><rect class="cls-1" x="125.88" y="269.89" width="12.95" height="12.95" transform="translate(-134.45 125.66) rotate(-34.95)"/></clipPath><clipPath id="clip-path-43"><rect class="cls-1" x="163.39" y="44" width="12.95" height="12.95" transform="translate(1.72 106.41) rotate(-34.95)"/></clipPath><clipPath id="clip-path-44"><rect class="cls-1" x="190.95" y="221.56" width="12.95" height="12.95" transform="translate(-95.03 154.22) rotate(-34.95)"/></clipPath><clipPath id="clip-path-45"><rect class="cls-1" x="366.84" y="39.4" width="12.95" height="12.95" transform="translate(41.04 222.13) rotate(-34.95)"/></clipPath><clipPath id="clip-path-46"><rect class="cls-1" x="441.34" y="265.48" width="12.95" height="12.95" transform="translate(-75.03 305.57) rotate(-34.95)"/></clipPath><clipPath id="clip-path-47"><rect class="cls-1" x="371.72" y="125.89" width="12.95" height="12.95" transform="translate(-7.62 240.52) rotate(-34.95)"/></clipPath><clipPath id="clip-path-48"><rect class="cls-1" x="151.99" y="86.02" width="12.95" height="12.95" transform="translate(-24.41 107.46) rotate(-34.95)"/></clipPath><clipPath id="clip-path-49"><rect class="cls-1" x="907.58" y="188.37" width="12.95" height="12.95" transform="translate(53.22 558.76) rotate(-34.95)"/></clipPath><clipPath id="clip-path-50"><rect class="cls-1" x="110.31" y="366.22" width="12.95" height="12.95" transform="translate(-192.44 134.11) rotate(-34.95)"/></clipPath><clipPath id="clip-path-51"><rect class="cls-1" x="237.93" y="115.19" width="12.95" height="12.95" transform="translate(-25.62 161.95) rotate(-34.95)"/></clipPath><clipPath id="clip-path-52"><rect class="cls-1" x="929.61" y="278.6" width="12.95" height="12.95" transform="translate(5.51 587.65) rotate(-34.95)"/></clipPath><clipPath id="clip-path-53"><rect class="cls-1" x="1053.2" y="168.22" width="12.95" height="12.95" transform="translate(91.03 638.54) rotate(-34.95)"/></clipPath><clipPath id="clip-path-54"><rect class="cls-1" x="887.71" y="214.43" width="12.95" height="12.95" transform="translate(34.71 552.07) rotate(-34.95)"/></clipPath><clipPath id="clip-path-55"><rect class="cls-1" x="215" y="17.04" width="12.95" height="12.95" transform="translate(26.47 131.11) rotate(-34.95)"/></clipPath><clipPath id="clip-path-56"><rect class="cls-1" x="117.01" y="308.6" width="12.95" height="12.95" transform="translate(-158.22 127.56) rotate(-34.95)"/></clipPath><clipPath id="clip-path-57"><rect class="cls-1" x="682.82" y="301.6" width="12.95" height="12.95" transform="translate(-52.17 450.42) rotate(-34.95)"/></clipPath><clipPath id="clip-path-58"><rect class="cls-1" x="901.1" y="238.49" width="12.95" height="12.95" transform="translate(23.34 564.08) rotate(-34.95)"/></clipPath><clipPath id="clip-path-59"><rect class="cls-1" x="975.24" y="173.24" width="12.95" height="12.95" transform="translate(74.09 594.78) rotate(-34.95)"/></clipPath><clipPath id="clip-path-60"><rect class="cls-1" x="143.81" y="297.96" width="12.95" height="12.95" transform="translate(-147.29 140.99) rotate(-34.95)"/></clipPath><clipPath id="clip-path-61"><rect class="cls-1" x="321.46" y="135.91" width="12.95" height="12.95" transform="translate(-22.43 213.53) rotate(-34.95)"/></clipPath><clipPath id="clip-path-62"><rect class="cls-1" x="420.13" y="14.85" width="12.95" height="12.95" transform="translate(64.72 248.22) rotate(-34.95)"/></clipPath><clipPath id="clip-path-63"><rect class="cls-1" x="896.37" y="165.41" width="12.95" height="12.95" transform="translate(64.36 548.19) rotate(-34.95)"/></clipPath><clipPath id="clip-path-64"><rect class="cls-1" x="280.56" y="373.71" width="12.95" height="12.95" transform="translate(-166.03 232.99) rotate(-34.95)"/></clipPath><clipPath id="clip-path-65"><rect class="cls-1" x="325.32" y="188.67" width="12.95" height="12.95" transform="translate(-51.95 225.26) rotate(-34.95)"/></clipPath><clipPath id="clip-path-66"><rect class="cls-1" x="262.53" y="284.68" width="12.95" height="12.95" transform="translate(-118.28 206.61) rotate(-34.95)"/></clipPath><clipPath id="clip-path-67"><rect class="cls-1" x="172.1" y="239.4" width="12.95" height="12.95" transform="translate(-108.64 146.64) rotate(-34.95)"/></clipPath><clipPath id="clip-path-68"><rect class="cls-1" x="341.02" y="-4.47" width="12.95" height="12.95" transform="translate(61.52 199.42) rotate(-34.95)"/></clipPath><clipPath id="clip-path-69"><rect class="cls-1" x="253" y="135.56" width="12.95" height="12.95" transform="translate(-34.57 174.25) rotate(-34.95)"/></clipPath><clipPath id="clip-path-70"><rect class="cls-1" x="149.94" y="145.6" width="12.95" height="12.95" transform="translate(-58.91 117.03) rotate(-34.95)"/></clipPath><clipPath id="clip-path-71"><rect class="cls-1" x="267.39" y="241.19" width="12.95" height="12.95" transform="translate(-92.48 201.54) rotate(-34.95)"/></clipPath><clipPath id="clip-path-72"><rect class="cls-1" x="17.58" y="397.43" width="12.95" height="12.95" transform="translate(-227.04 86.62) rotate(-34.95)"/></clipPath><clipPath id="clip-path-73"><rect class="cls-1" x="231.07" y="338.9" width="12.95" height="12.95" transform="translate(-155.01 198.37) rotate(-34.95)"/></clipPath><clipPath id="clip-path-74"><rect class="cls-1" x="116.87" y="108.52" width="12.95" height="12.95" transform="translate(-43.63 91.39) rotate(-34.95)"/></clipPath><clipPath id="clip-path-75"><rect class="cls-1" x="250.89" y="224.46" width="12.95" height="12.95" transform="translate(-85.88 189.08) rotate(-34.95)"/></clipPath><clipPath id="clip-path-76"><rect class="cls-1" x="197.59" y="249.14" width="12.95" height="12.95" transform="translate(-109.63 163) rotate(-34.95)"/></clipPath><clipPath id="clip-path-77"><rect class="cls-1" x="1026.78" y="141.47" width="12.95" height="12.95" transform="translate(101.59 618.58) rotate(-34.95)"/></clipPath><clipPath id="clip-path-78"><rect class="cls-1" x="780.38" y="218.27" width="12.95" height="12.95" transform="translate(13.15 491.28) rotate(-34.95)"/></clipPath><clipPath id="clip-path-79"><rect class="cls-1" x="189.45" y="167.89" width="12.95" height="12.95" transform="translate(-64.55 143.68) rotate(-34.95)"/></clipPath><clipPath id="clip-path-80"><rect class="cls-1" x="1033.38" y="113.53" width="12.95" height="12.95" transform="translate(118.78 617.32) rotate(-34.95)"/></clipPath><clipPath id="clip-path-81"><rect class="cls-1" x="868.6" y="160.76" width="12.95" height="12.95" transform="translate(62.01 531.44) rotate(-34.95)"/></clipPath><clipPath id="clip-path-82"><rect class="cls-1" x="918.48" y="208.76" width="12.95" height="12.95" transform="translate(43.51 568.67) rotate(-34.95)"/></clipPath><clipPath id="clip-path-83"><rect class="cls-1" x="75.51" y="344.52" width="12.95" height="12.95" transform="translate(-186.28 110.26) rotate(-34.95)"/></clipPath><clipPath id="clip-path-84"><rect class="cls-1" x="549.2" y="80.5" width="12.95" height="12.95" transform="translate(50.39 334.01) rotate(-34.95)"/></clipPath><clipPath id="clip-path-85"><rect class="cls-1" x="407.38" y="163.56" width="12.95" height="12.95" transform="translate(-22.77 267.74) rotate(-34.95)"/></clipPath><clipPath id="clip-path-86"><rect class="cls-1" x="546.8" y="24.04" width="12.95" height="12.95" transform="translate(82.3 322.45) rotate(-34.95)"/></clipPath><clipPath id="clip-path-87"><rect class="cls-1" x="366.03" y="185.28" width="12.95" height="12.95" transform="translate(-42.67 247.97) rotate(-34.95)"/></clipPath><clipPath id="clip-path-88"><rect class="cls-1" x="206.46" y="298.34" width="12.95" height="12.95" transform="translate(-136.21 176.95) rotate(-34.95)"/></clipPath><clipPath id="clip-path-89"><rect class="cls-1" x="147.04" y="186.15" width="12.95" height="12.95" transform="translate(-82.66 122.68) rotate(-34.95)"/></clipPath><clipPath id="clip-path-90"><rect class="cls-1" x="653.24" y="80.61" width="12.95" height="12.95" transform="translate(69.08 393.62) rotate(-34.95)"/></clipPath><clipPath id="clip-path-91"><rect class="cls-1" x="94.14" y="156.27" width="12.95" height="12.95" transform="translate(-75.09 86.99) rotate(-34.95)"/></clipPath><clipPath id="clip-path-92"><rect class="cls-1" x="923.36" y="82.34" width="12.95" height="12.95" transform="translate(116.81 548.67) rotate(-34.95)"/></clipPath><clipPath id="clip-path-93"><rect class="cls-1" x="252.57" y="309.49" width="12.95" height="12.95" transform="translate(-134.29 205.37) rotate(-34.95)"/></clipPath><clipPath id="clip-path-94"><rect class="cls-1" x="314.86" y="6.98" width="12.95" height="12.95" transform="translate(50.24 186.5) rotate(-34.95)"/></clipPath><clipPath id="clip-path-95"><rect class="cls-1" x="926.76" y="242.43" width="12.95" height="12.95" transform="translate(25.71 579.49) rotate(-34.95)"/></clipPath><clipPath id="clip-path-96"><rect class="cls-1" x="350.08" y="291.43" width="12.95" height="12.95" transform="translate(-106.35 257.97) rotate(-34.95)"/></clipPath><clipPath id="clip-path-97"><rect class="cls-1" x="945.47" y="103.76" width="12.95" height="12.95" transform="translate(108.53 565.2) rotate(-34.95)"/></clipPath><clipPath id="clip-path-98"><rect class="cls-1" x="1039.6" y="230.39" width="12.95" height="12.95" transform="translate(52.96 641.96) rotate(-34.95)"/></clipPath><clipPath id="clip-path-99"><rect class="cls-1" x="301.04" y="310.48" width="12.95" height="12.95" transform="translate(-126.11 233.32) rotate(-34.95)"/></clipPath><clipPath id="clip-path-100"><rect class="cls-1" x="1056.43" y="210.82" width="12.95" height="12.95" transform="translate(67.21 648.07) rotate(-34.95)"/></clipPath><clipPath id="clip-path-101"><rect class="cls-1" x="255.61" y="7.31" width="12.95" height="12.95" transform="translate(39.37 152.62) rotate(-34.95)"/></clipPath><clipPath id="clip-path-102"><rect class="cls-1" x="535.78" y="304.15" width="12.95" height="12.95" transform="translate(-80.15 366.65) rotate(-34.95)"/></clipPath></defs><title>main_img</title><g class="cls-2"><g id="Layer_1" data-name="Layer 1"><rect class="cls-3" x="0.58" y="0.77" width="1133.28" height="424.43"/><g class="cls-4"><g class="cls-5"><g class="cls-5"><g class="cls-6"><line class="cls-7" x1="197.25" y1="82.16" x2="169.86" y2="50.48"/><line class="cls-7" x1="197.25" y1="82.16" x2="156.42" y2="152.07"/><line class="cls-7" x1="197.25" y1="82.16" x2="413.85" y2="170.04"/><line class="cls-7" x1="197.25" y1="82.16" x2="204.06" y2="255.61"/><line class="cls-7" x1="197.25" y1="82.16" x2="111.48" y2="-41.04"/><line class="cls-7" x1="197.25" y1="82.16" x2="120.12" y2="-62.07"/><line class="cls-7" x1="197.25" y1="82.16" x2="123.34" y2="114.99"/><line class="cls-7" x1="945.32" y1="148.75" x2="1046.08" y2="236.86"/><line class="cls-7" x1="945.32" y1="148.75" x2="951.94" y2="110.23"/><line class="cls-7" x1="945.32" y1="148.75" x2="1033.26" y2="147.94"/><line class="cls-7" x1="945.32" y1="148.75" x2="1057.83" y2="146.7"/><line class="cls-7" x1="945.32" y1="148.75" x2="981.71" y2="179.72"/><line class="cls-7" x1="945.32" y1="148.75" x2="914.06" y2="194.84"/><line class="cls-7" x1="945.32" y1="148.75" x2="1039.85" y2="120"/><line class="cls-7" x1="945.32" y1="148.75" x2="1016.49" y2="106.29"/><line class="cls-7" x1="945.32" y1="148.75" x2="902.85" y2="171.88"/><line class="cls-7" x1="945.32" y1="148.75" x2="659.71" y2="87.09"/><line class="cls-7" x1="945.32" y1="148.75" x2="1062.91" y2="217.29"/><line class="cls-7" x1="945.32" y1="148.75" x2="1059.68" y2="174.7"/><line class="cls-7" x1="945.32" y1="148.75" x2="1041.29" y2="191.63"/><line class="cls-7" x1="945.32" y1="148.75" x2="924.95" y2="215.24"/><line class="cls-7" x1="945.32" y1="148.75" x2="929.83" y2="88.82"/><line class="cls-7" x1="945.32" y1="148.75" x2="875.07" y2="167.24"/><line class="cls-7" x1="914.31" y1="280.87" x2="1000.36" y2="254.86"/><line class="cls-7" x1="914.31" y1="280.87" x2="786.85" y2="224.75"/><line class="cls-7" x1="914.31" y1="280.87" x2="969.61" y2="187.32"/><line class="cls-7" x1="78.25" y1="237.49" x2="178.58" y2="245.87"/><line class="cls-7" x1="78.25" y1="237.49" x2="204.06" y2="255.61"/><line class="cls-7" x1="78.25" y1="237.49" x2="100.61" y2="162.75"/><line class="cls-7" x1="462.39" y1="-99.66" x2="452.49" y2="24.21"/><line class="cls-7" x1="462.39" y1="-99.66" x2="347.5" y2="2"/><line class="cls-7" x1="193.2" y1="391.74" x2="259.04" y2="315.97"/><line class="cls-7" x1="193.2" y1="391.74" x2="181.09" y2="321.95"/><line class="cls-7" x1="193.2" y1="391.74" x2="204.06" y2="255.61"/><line class="cls-7" x1="425.18" y1="318.9" x2="307.51" y2="316.95"/><line class="cls-7" x1="425.18" y1="318.9" x2="542.26" y2="310.63"/><line class="cls-7" x1="425.18" y1="318.9" x2="331.79" y2="195.14"/><line class="cls-7" x1="149.96" y1="381.92" x2="191.33" y2="345.35"/><line class="cls-7" x1="149.96" y1="381.92" x2="116.78" y2="372.7"/><line class="cls-7" x1="149.96" y1="381.92" x2="235.9" y2="275"/><line class="cls-7" x1="149.96" y1="381.92" x2="123.48" y2="315.07"/><line class="cls-7" x1="149.96" y1="381.92" x2="181.09" y2="321.95"/><line class="cls-7" x1="288.52" y1="189.98" x2="291.02" y2="112.69"/><line class="cls-7" x1="288.52" y1="189.98" x2="252.19" y2="165.14"/><line class="cls-7" x1="288.52" y1="189.98" x2="331.79" y2="195.14"/><line class="cls-7" x1="288.52" y1="189.98" x2="273.86" y2="247.66"/><line class="cls-7" x1="288.52" y1="189.98" x2="235.38" y2="216.85"/><line class="cls-7" x1="392.67" y1="-30.96" x2="455.8" y2="106.55"/><line class="cls-7" x1="392.67" y1="-30.96" x2="553.28" y2="30.51"/><line class="cls-7" x1="235.38" y1="216.85" x2="291.02" y2="112.69"/><line class="cls-7" x1="235.38" y1="216.85" x2="123.34" y2="114.99"/><line class="cls-7" x1="235.38" y1="216.85" x2="181.09" y2="321.95"/><line class="cls-7" x1="235.38" y1="216.85" x2="259.47" y2="142.03"/><line class="cls-7" x1="235.38" y1="216.85" x2="235.9" y2="275"/><line class="cls-7" x1="235.38" y1="216.85" x2="257.36" y2="230.94"/><line class="cls-7" x1="235.38" y1="216.85" x2="156.42" y2="152.07"/><line class="cls-7" x1="235.38" y1="216.85" x2="413.85" y2="170.04"/><line class="cls-7" x1="235.38" y1="216.85" x2="204.06" y2="255.61"/><line class="cls-7" x1="235.38" y1="216.85" x2="259.04" y2="315.97"/><line class="cls-7" x1="235.38" y1="216.85" x2="123.48" y2="315.07"/><line class="cls-7" x1="235.38" y1="216.85" x2="318.89" y2="240.87"/><line class="cls-7" x1="333.76" y1="123.58" x2="455.8" y2="106.55"/><line class="cls-7" x1="333.76" y1="123.58" x2="257.36" y2="230.94"/><line class="cls-7" x1="333.76" y1="123.58" x2="373.31" y2="45.88"/><line class="cls-7" x1="333.76" y1="123.58" x2="262.08" y2="13.79"/><line class="cls-7" x1="333.76" y1="123.58" x2="331.79" y2="195.14"/><line class="cls-7" x1="333.76" y1="123.58" x2="273.86" y2="247.66"/><line class="cls-7" x1="291.02" y1="112.69" x2="426.6" y2="21.32"/><line class="cls-7" x1="291.02" y1="112.69" x2="158.46" y2="92.49"/><line class="cls-7" x1="291.02" y1="112.69" x2="257.36" y2="230.94"/><line class="cls-7" x1="291.02" y1="112.69" x2="231.37" y2="66.01"/><line class="cls-7" x1="291.02" y1="112.69" x2="244.41" y2="121.67"/><line class="cls-7" x1="291.02" y1="112.69" x2="347.5" y2="2"/><line class="cls-7" x1="291.02" y1="112.69" x2="413.85" y2="170.04"/><line class="cls-7" x1="291.02" y1="112.69" x2="221.48" y2="23.51"/><line class="cls-7" x1="291.02" y1="112.69" x2="206.7" y2="126.88"/><line class="cls-7" x1="291.02" y1="112.69" x2="318.89" y2="240.87"/><line class="cls-7" x1="231.37" y1="66.01" x2="259.47" y2="142.03"/><line class="cls-7" x1="231.37" y1="66.01" x2="252.19" y2="165.14"/><line class="cls-7" x1="1041.29" y1="191.63" x2="969.61" y2="187.32"/><line class="cls-7" x1="1041.29" y1="191.63" x2="981.71" y2="179.72"/><line class="cls-7" x1="206.7" y1="126.88" x2="259.47" y2="142.03"/><line class="cls-7" x1="206.7" y1="126.88" x2="257.36" y2="230.94"/><line class="cls-7" x1="577.45" y1="139.22" x2="455.8" y2="106.55"/><line class="cls-7" x1="577.45" y1="139.22" x2="839.26" y2="135.96"/><line class="cls-7" x1="577.45" y1="139.22" x2="553.28" y2="30.51"/><line class="cls-7" x1="577.45" y1="139.22" x2="331.79" y2="195.14"/><line class="cls-7" x1="577.45" y1="139.22" x2="532.32" y2="168.53"/><line class="cls-7" x1="1057.83" y1="146.7" x2="969.61" y2="187.32"/><line class="cls-7" x1="1057.83" y1="146.7" x2="981.71" y2="179.72"/><line class="cls-7" x1="1000.36" y1="254.86" x2="1046.08" y2="236.86"/><line class="cls-7" x1="1000.36" y1="254.86" x2="914.06" y2="194.84"/><line class="cls-7" x1="1000.36" y1="254.86" x2="970.05" y2="153.51"/><line class="cls-7" x1="1000.36" y1="254.86" x2="936.08" y2="285.08"/><line class="cls-7" x1="1000.36" y1="254.86" x2="1062.91" y2="217.29"/><line class="cls-7" x1="444.2" y1="227.91" x2="327.93" y2="142.38"/><line class="cls-7" x1="444.2" y1="227.91" x2="542.26" y2="310.63"/><line class="cls-7" x1="444.2" y1="227.91" x2="338.27" y2="177.06"/><line class="cls-7" x1="235.9" y1="275" x2="259.47" y2="142.03"/><line class="cls-7" x1="235.9" y1="275" x2="204.06" y2="255.61"/><line class="cls-7" x1="235.9" y1="275" x2="178.58" y2="245.87"/><line class="cls-7" x1="235.9" y1="275" x2="307.51" y2="316.95"/><line class="cls-7" x1="235.9" y1="275" x2="257.36" y2="230.94"/><line class="cls-7" x1="235.9" y1="275" x2="273.86" y2="247.66"/><line class="cls-7" x1="235.9" y1="275" x2="331.79" y2="195.14"/><line class="cls-7" x1="235.9" y1="275" x2="259.04" y2="315.97"/><line class="cls-7" x1="235.9" y1="275" x2="181.09" y2="321.95"/><line class="cls-7" x1="839.26" y1="135.96" x2="951.94" y2="110.23"/><line class="cls-7" x1="839.26" y1="135.96" x2="914.06" y2="194.84"/><line class="cls-7" x1="839.26" y1="135.96" x2="981.71" y2="179.72"/><line class="cls-7" x1="839.26" y1="135.96" x2="970.05" y2="153.51"/><line class="cls-7" x1="839.26" y1="135.96" x2="929.83" y2="88.82"/><line class="cls-7" x1="839.26" y1="135.96" x2="875.07" y2="167.24"/><line class="cls-7" x1="312.54" y1="370.7" x2="307.51" y2="316.95"/><line class="cls-7" x1="312.54" y1="370.7" x2="257.36" y2="230.94"/><line class="cls-7" x1="312.54" y1="370.7" x2="259.04" y2="315.97"/><line class="cls-7" x1="338.27" y1="177.06" x2="321.34" y2="13.45"/><line class="cls-7" x1="338.27" y1="177.06" x2="252.19" y2="165.14"/><line class="cls-7" x1="338.27" y1="177.06" x2="259.04" y2="315.97"/><line class="cls-7" x1="969.61" y1="187.32" x2="933.24" y2="248.91"/><line class="cls-7" x1="969.61" y1="187.32" x2="951.94" y2="110.23"/><line class="cls-7" x1="969.61" y1="187.32" x2="914.06" y2="194.84"/><line class="cls-7" x1="969.61" y1="187.32" x2="1033.26" y2="147.94"/><line class="cls-7" x1="969.61" y1="187.32" x2="929.83" y2="88.82"/><line class="cls-7" x1="969.61" y1="187.32" x2="902.85" y2="171.88"/><line class="cls-7" x1="969.61" y1="187.32" x2="1039.85" y2="120"/><line class="cls-7" x1="969.61" y1="187.32" x2="936.08" y2="285.08"/><line class="cls-7" x1="969.61" y1="187.32" x2="924.95" y2="215.24"/><line class="cls-7" x1="969.61" y1="187.32" x2="894.19" y2="220.9"/><line class="cls-7" x1="969.61" y1="187.32" x2="907.58" y2="244.96"/><line class="cls-7" x1="969.61" y1="187.32" x2="970.05" y2="153.51"/><line class="cls-7" x1="969.61" y1="187.32" x2="1059.68" y2="174.7"/><line class="cls-7" x1="969.61" y1="187.32" x2="981.71" y2="179.72"/><line class="cls-7" x1="969.61" y1="187.32" x2="1016.49" y2="106.29"/><line class="cls-7" x1="969.61" y1="187.32" x2="875.07" y2="167.24"/><line class="cls-7" x1="252.19" y1="165.14" x2="100.61" y2="162.75"/><line class="cls-7" x1="252.19" y1="165.14" x2="178.58" y2="245.87"/><line class="cls-7" x1="252.19" y1="165.14" x2="195.93" y2="174.36"/><line class="cls-7" x1="252.19" y1="165.14" x2="413.85" y2="170.04"/><line class="cls-7" x1="252.19" y1="165.14" x2="378.19" y2="132.37"/><line class="cls-7" x1="252.19" y1="165.14" x2="156.42" y2="152.07"/><line class="cls-7" x1="252.19" y1="165.14" x2="226.17" y2="198.57"/><line class="cls-7" x1="252.19" y1="165.14" x2="257.36" y2="230.94"/><line class="cls-7" x1="1016.49" y1="106.29" x2="981.71" y2="179.72"/><line class="cls-7" x1="455.8" y1="106.55" x2="659.71" y2="87.09"/><line class="cls-7" x1="455.8" y1="106.55" x2="426.6" y2="21.32"/><line class="cls-7" x1="455.8" y1="106.55" x2="378.19" y2="132.37"/><line class="cls-7" x1="455.8" y1="106.55" x2="257.36" y2="230.94"/><line class="cls-7" x1="455.8" y1="106.55" x2="555.68" y2="86.98"/><line class="cls-7" x1="452.49" y1="24.21" x2="331.79" y2="195.14"/><line class="cls-7" x1="452.49" y1="24.21" x2="544.49" y2="-45.95"/><line class="cls-7" x1="318.89" y1="240.87" x2="307.51" y2="316.95"/><line class="cls-7" x1="294.53" y1="69.85" x2="259.47" y2="142.03"/><line class="cls-7" x1="294.53" y1="69.85" x2="331.79" y2="195.14"/><line class="cls-7" x1="294.53" y1="69.85" x2="262.08" y2="13.79"/><line class="cls-7" x1="168.82" y1="-157.52" x2="262.08" y2="13.79"/><line class="cls-7" x1="238.16" y1="376.7" x2="273.86" y2="247.66"/><line class="cls-7" x1="238.16" y1="376.7" x2="204.06" y2="255.61"/><line class="cls-7" x1="532.32" y1="168.53" x2="659.71" y2="87.09"/><line class="cls-7" x1="532.32" y1="168.53" x2="555.68" y2="86.98"/><line class="cls-7" x1="532.32" y1="168.53" x2="447.81" y2="271.95"/><line class="cls-7" x1="532.32" y1="168.53" x2="372.5" y2="191.76"/><line class="cls-7" x1="71.85" y1="438.81" x2="181.09" y2="321.95"/><line class="cls-7" x1="71.85" y1="438.81" x2="24.05" y2="403.9"/><line class="cls-7" x1="29.38" y1="213.35" x2="178.58" y2="245.87"/><line class="cls-7" x1="29.38" y1="213.35" x2="100.61" y2="162.75"/><line class="cls-7" x1="191.33" y1="345.35" x2="257.36" y2="230.94"/><line class="cls-7" x1="191.33" y1="345.35" x2="259.04" y2="315.97"/><line class="cls-7" x1="191.33" y1="345.35" x2="181.09" y2="321.95"/><line class="cls-7" x1="191.33" y1="345.35" x2="178.58" y2="245.87"/><line class="cls-7" x1="181.09" y1="321.95" x2="150.28" y2="304.44"/><line class="cls-7" x1="181.09" y1="321.95" x2="269" y2="291.16"/><line class="cls-7" x1="181.09" y1="321.95" x2="178.58" y2="245.87"/><line class="cls-7" x1="181.09" y1="321.95" x2="237.55" y2="345.38"/><line class="cls-7" x1="181.09" y1="321.95" x2="116.78" y2="372.7"/><line class="cls-7" x1="181.09" y1="321.95" x2="307.51" y2="316.95"/><line class="cls-7" x1="181.09" y1="321.95" x2="197.43" y2="228.04"/><line class="cls-7" x1="181.09" y1="321.95" x2="81.99" y2="351"/><line class="cls-7" x1="181.09" y1="321.95" x2="257.36" y2="230.94"/><line class="cls-7" x1="181.09" y1="321.95" x2="132.36" y2="276.37"/><line class="cls-7" x1="181.09" y1="321.95" x2="204.06" y2="255.61"/><line class="cls-7" x1="181.09" y1="321.95" x2="259.04" y2="315.97"/><line class="cls-7" x1="181.09" y1="321.95" x2="123.48" y2="315.07"/><line class="cls-7" x1="226.17" y1="198.57" x2="257.36" y2="230.94"/><line class="cls-7" x1="226.17" y1="198.57" x2="331.79" y2="195.14"/><line class="cls-7" x1="226.17" y1="198.57" x2="204.06" y2="255.61"/><line class="cls-7" x1="226.17" y1="198.57" x2="197.43" y2="228.04"/><line class="cls-7" x1="132.36" y1="276.37" x2="257.36" y2="230.94"/><line class="cls-7" x1="132.36" y1="276.37" x2="204.06" y2="255.61"/><line class="cls-7" x1="191.79" y1="-70.07" x2="169.86" y2="50.48"/><line class="cls-7" x1="169.86" y1="50.48" x2="257.36" y2="230.94"/><line class="cls-7" x1="197.43" y1="228.04" x2="259.47" y2="142.03"/><line class="cls-7" x1="197.43" y1="228.04" x2="178.58" y2="245.87"/><line class="cls-7" x1="197.43" y1="228.04" x2="156.42" y2="152.07"/><line class="cls-7" x1="197.43" y1="228.04" x2="257.36" y2="230.94"/><line class="cls-7" x1="197.43" y1="228.04" x2="204.06" y2="255.61"/><line class="cls-7" x1="197.43" y1="228.04" x2="331.79" y2="195.14"/><line class="cls-7" x1="197.43" y1="228.04" x2="123.48" y2="315.07"/><line class="cls-7" x1="373.31" y1="45.88" x2="426.6" y2="21.32"/><line class="cls-7" x1="373.31" y1="45.88" x2="314" y2="-62.63"/><line class="cls-7" x1="373.31" y1="45.88" x2="372.5" y2="191.76"/><line class="cls-7" x1="447.81" y1="271.95" x2="542.26" y2="310.63"/><line class="cls-7" x1="447.81" y1="271.95" x2="331.79" y2="195.14"/><line class="cls-7" x1="447.81" y1="271.95" x2="307.51" y2="316.95"/><line class="cls-7" x1="378.19" y1="132.37" x2="331.79" y2="195.14"/><line class="cls-7" x1="158.46" y1="92.49" x2="259.47" y2="142.03"/><line class="cls-7" x1="158.46" y1="92.49" x2="100.61" y2="162.75"/><line class="cls-7" x1="914.06" y1="194.84" x2="786.85" y2="224.75"/><line class="cls-7" x1="914.06" y1="194.84" x2="981.71" y2="179.72"/><line class="cls-7" x1="116.78" y1="372.7" x2="204.06" y2="255.61"/><line class="cls-7" x1="244.41" y1="121.67" x2="331.79" y2="195.14"/><line class="cls-7" x1="244.41" y1="121.67" x2="204.06" y2="255.61"/><line class="cls-7" x1="244.41" y1="121.67" x2="262.08" y2="13.79"/><line class="cls-7" x1="244.41" y1="121.67" x2="259.47" y2="142.03"/><line class="cls-7" x1="936.08" y1="285.08" x2="786.85" y2="224.75"/><line class="cls-7" x1="1059.68" y1="174.7" x2="981.71" y2="179.72"/><line class="cls-7" x1="894.19" y1="220.9" x2="786.85" y2="224.75"/><line class="cls-7" x1="894.19" y1="220.9" x2="981.71" y2="179.72"/><line class="cls-7" x1="221.48" y1="23.51" x2="259.47" y2="142.03"/><line class="cls-7" x1="123.48" y1="315.07" x2="204.06" y2="255.61"/><line class="cls-7" x1="123.48" y1="315.07" x2="24.05" y2="403.9"/><line class="cls-7" x1="78.56" y1="-31.65" x2="123.34" y2="114.99"/><line class="cls-7" x1="689.3" y1="308.07" x2="542.26" y2="310.63"/><line class="cls-7" x1="689.3" y1="308.07" x2="786.85" y2="224.75"/><line class="cls-7" x1="907.58" y1="244.96" x2="786.85" y2="224.75"/><line class="cls-7" x1="907.58" y1="244.96" x2="981.71" y2="179.72"/><line class="cls-7" x1="981.71" y1="179.72" x2="902.85" y2="171.88"/><line class="cls-7" x1="981.71" y1="179.72" x2="933.24" y2="248.91"/><line class="cls-7" x1="981.71" y1="179.72" x2="1033.26" y2="147.94"/><line class="cls-7" x1="981.71" y1="179.72" x2="951.94" y2="110.23"/><line class="cls-7" x1="981.71" y1="179.72" x2="1046.08" y2="236.86"/><line class="cls-7" x1="981.71" y1="179.72" x2="1062.91" y2="217.29"/><line class="cls-7" x1="981.71" y1="179.72" x2="924.95" y2="215.24"/><line class="cls-7" x1="981.71" y1="179.72" x2="1039.85" y2="120"/><line class="cls-7" x1="150.28" y1="304.44" x2="257.36" y2="230.94"/><line class="cls-7" x1="150.28" y1="304.44" x2="204.06" y2="255.61"/><line class="cls-7" x1="327.93" y1="142.38" x2="259.47" y2="142.03"/><line class="cls-7" x1="327.93" y1="142.38" x2="257.36" y2="230.94"/><line class="cls-7" x1="327.93" y1="142.38" x2="262.08" y2="13.79"/><line class="cls-7" x1="426.6" y1="21.32" x2="544.49" y2="-45.95"/><line class="cls-7" x1="902.85" y1="171.88" x2="786.85" y2="224.75"/><line class="cls-7" x1="287.03" y1="380.19" x2="307.51" y2="316.95"/><line class="cls-7" x1="287.03" y1="380.19" x2="257.36" y2="230.94"/><line class="cls-7" x1="287.03" y1="380.19" x2="259.04" y2="315.97"/><line class="cls-7" x1="331.79" y1="195.14" x2="356.55" y2="297.9"/><line class="cls-7" x1="331.79" y1="195.14" x2="269" y2="291.16"/><line class="cls-7" x1="331.79" y1="195.14" x2="178.58" y2="245.87"/><line class="cls-7" x1="331.79" y1="195.14" x2="195.93" y2="174.36"/><line class="cls-7" x1="331.79" y1="195.14" x2="259.47" y2="142.03"/><line class="cls-7" x1="331.79" y1="195.14" x2="413.85" y2="170.04"/><line class="cls-7" x1="331.79" y1="195.14" x2="257.36" y2="230.94"/><line class="cls-7" x1="331.79" y1="195.14" x2="204.06" y2="255.61"/><line class="cls-7" x1="269" y1="291.16" x2="257.36" y2="230.94"/><line class="cls-7" x1="269" y1="291.16" x2="204.06" y2="255.61"/><line class="cls-7" x1="269" y1="291.16" x2="273.86" y2="247.66"/><line class="cls-7" x1="178.58" y1="245.87" x2="257.36" y2="230.94"/><line class="cls-7" x1="178.58" y1="245.87" x2="204.06" y2="255.61"/><line class="cls-7" x1="178.58" y1="245.87" x2="273.86" y2="247.66"/><line class="cls-7" x1="178.58" y1="245.87" x2="153.51" y2="192.63"/><line class="cls-7" x1="178.58" y1="245.87" x2="212.93" y2="304.81"/><line class="cls-7" x1="347.5" y1="2" x2="259.47" y2="142.03"/><line class="cls-7" x1="314" y1="-62.63" x2="321.34" y2="13.45"/><line class="cls-7" x1="314" y1="-62.63" x2="262.08" y2="13.79"/><line class="cls-7" x1="259.47" y1="142.03" x2="262.08" y2="13.79"/><line class="cls-7" x1="259.47" y1="142.03" x2="153.51" y2="192.63"/><line class="cls-7" x1="259.47" y1="142.03" x2="273.86" y2="247.66"/><line class="cls-7" x1="259.47" y1="142.03" x2="413.85" y2="170.04"/><line class="cls-7" x1="259.47" y1="142.03" x2="257.36" y2="230.94"/><line class="cls-7" x1="259.47" y1="142.03" x2="204.06" y2="255.61"/><line class="cls-7" x1="273.86" y1="247.66" x2="257.36" y2="230.94"/><line class="cls-7" x1="273.86" y1="247.66" x2="372.5" y2="191.76"/><line class="cls-7" x1="273.86" y1="247.66" x2="204.06" y2="255.61"/><line class="cls-7" x1="273.86" y1="247.66" x2="212.93" y2="304.81"/><line class="cls-7" x1="24.05" y1="403.9" x2="81.99" y2="351"/><line class="cls-7" x1="237.55" y1="345.38" x2="307.51" y2="316.95"/><line class="cls-7" x1="237.55" y1="345.38" x2="257.36" y2="230.94"/><line class="cls-7" x1="237.55" y1="345.38" x2="204.06" y2="255.61"/><line class="cls-7" x1="544.49" y1="-45.95" x2="659.71" y2="87.09"/><line class="cls-7" x1="123.34" y1="114.99" x2="204.06" y2="255.61"/><line class="cls-7" x1="257.36" y1="230.94" x2="356.55" y2="297.9"/><line class="cls-7" x1="257.36" y1="230.94" x2="153.51" y2="192.63"/><line class="cls-7" x1="257.36" y1="230.94" x2="212.93" y2="304.81"/><line class="cls-7" x1="257.36" y1="230.94" x2="307.51" y2="316.95"/><line class="cls-7" x1="257.36" y1="230.94" x2="195.93" y2="174.36"/><line class="cls-7" x1="257.36" y1="230.94" x2="259.04" y2="315.97"/><line class="cls-7" x1="204.06" y1="255.61" x2="212.93" y2="304.81"/><line class="cls-7" x1="204.06" y1="255.61" x2="307.51" y2="316.95"/><line class="cls-7" x1="204.06" y1="255.61" x2="372.5" y2="191.76"/><line class="cls-7" x1="204.06" y1="255.61" x2="81.99" y2="351"/><line class="cls-7" x1="786.85" y1="224.75" x2="933.24" y2="248.91"/><line class="cls-7" x1="786.85" y1="224.75" x2="875.07" y2="167.24"/><line class="cls-7" x1="786.85" y1="224.75" x2="924.95" y2="215.24"/><line class="cls-7" x1="786.85" y1="224.75" x2="413.85" y2="170.04"/><line class="cls-7" x1="195.93" y1="174.36" x2="100.61" y2="162.75"/><line class="cls-7" x1="555.68" y1="86.98" x2="553.28" y2="30.51"/><line class="cls-7" x1="553.28" y1="30.51" x2="659.71" y2="87.09"/><line class="cls-7" x1="212.93" y1="304.81" x2="259.04" y2="315.97"/><line class="cls-7" x1="259.04" y1="315.97" x2="307.51" y2="316.95"/></g><g class="cls-6"><g class="cls-8"><path class="cls-9" d="M200.34,86.58a5.4,5.4,0,1,0-4,.89A5.4,5.4,0,0,0,200.34,86.58Z"/><path class="cls-10" d="M200.34,86.58a5.4,5.4,0,1,0-4,.89A5.4,5.4,0,0,0,200.34,86.58Z"/></g><g class="cls-11"><path class="cls-12" d="M948.42,153.18a5.4,5.4,0,1,0-4,.89A5.4,5.4,0,0,0,948.42,153.18Z"/><path class="cls-13" d="M948.42,153.18a5.4,5.4,0,1,0-4,.89A5.4,5.4,0,0,0,948.42,153.18Z"/></g><g class="cls-14"><path class="cls-15" d="M917.41,285.29a5.4,5.4,0,1,0-4,.89A5.4,5.4,0,0,0,917.41,285.29Z"/><path class="cls-16" d="M917.41,285.29a5.4,5.4,0,1,0-4,.89A5.4,5.4,0,0,0,917.41,285.29Z"/></g><g class="cls-17"><path class="cls-15" d="M81.34,241.91a5.4,5.4,0,1,0-4,.89A5.4,5.4,0,0,0,81.34,241.91Z"/><path class="cls-16" d="M81.34,241.91a5.4,5.4,0,1,0-4,.89A5.4,5.4,0,0,0,81.34,241.91Z"/></g><g class="cls-18"><path class="cls-15" d="M196.29,396.16a5.4,5.4,0,1,0-4,.89A5.4,5.4,0,0,0,196.29,396.16Z"/><path class="cls-16" d="M196.29,396.16a5.4,5.4,0,1,0-4,.89A5.4,5.4,0,0,0,196.29,396.16Z"/></g><g class="cls-19"><path class="cls-15" d="M428.27,323.32a5.4,5.4,0,1,0-4,.89A5.4,5.4,0,0,0,428.27,323.32Z"/><path class="cls-16" d="M428.27,323.32a5.4,5.4,0,1,0-4,.89A5.4,5.4,0,0,0,428.27,323.32Z"/></g><g class="cls-20"><path class="cls-21" d="M153.05,386.34a5.4,5.4,0,1,0-4,.89A5.4,5.4,0,0,0,153.05,386.34Z"/><path class="cls-22" d="M153.05,386.34a5.4,5.4,0,1,0-4,.89A5.4,5.4,0,0,0,153.05,386.34Z"/></g><g class="cls-23"><path class="cls-21" d="M291.61,194.41a5.4,5.4,0,1,0-4,.89A5.4,5.4,0,0,0,291.61,194.41Z"/><path class="cls-22" d="M291.61,194.41a5.4,5.4,0,1,0-4,.89A5.4,5.4,0,0,0,291.61,194.41Z"/></g><g class="cls-24"><path class="cls-25" d="M238.47,221.27a5.4,5.4,0,1,0-4,.89A5.4,5.4,0,0,0,238.47,221.27Z"/><path class="cls-26" d="M238.47,221.27a5.4,5.4,0,1,0-4,.89A5.4,5.4,0,0,0,238.47,221.27Z"/></g><g class="cls-27"><path class="cls-28" d="M336.85,128a5.4,5.4,0,1,0-4,.89A5.4,5.4,0,0,0,336.85,128Z"/><path class="cls-29" d="M336.85,128a5.4,5.4,0,1,0-4,.89A5.4,5.4,0,0,0,336.85,128Z"/></g><g class="cls-30"><path class="cls-31" d="M294.11,117.12a5.4,5.4,0,1,0-4,.89A5.4,5.4,0,0,0,294.11,117.12Z"/><path class="cls-32" d="M294.11,117.12a5.4,5.4,0,1,0-4,.89A5.4,5.4,0,0,0,294.11,117.12Z"/></g><g class="cls-33"><path class="cls-15" d="M234.46,70.43a5.4,5.4,0,1,0-4,.89A5.4,5.4,0,0,0,234.46,70.43Z"/><path class="cls-16" d="M234.46,70.43a5.4,5.4,0,1,0-4,.89A5.4,5.4,0,0,0,234.46,70.43Z"/></g><g class="cls-34"><path class="cls-15" d="M1044.38,196a5.4,5.4,0,1,0-4,.89A5.4,5.4,0,0,0,1044.38,196Z"/><path class="cls-16" d="M1044.38,196a5.4,5.4,0,1,0-4,.89A5.4,5.4,0,0,0,1044.38,196Z"/></g><g class="cls-35"><path class="cls-15" d="M209.79,131.3a5.4,5.4,0,1,0-4,.89A5.4,5.4,0,0,0,209.79,131.3Z"/><path class="cls-16" d="M209.79,131.3a5.4,5.4,0,1,0-4,.89A5.4,5.4,0,0,0,209.79,131.3Z"/></g><g class="cls-36"><path class="cls-21" d="M580.54,143.65a5.4,5.4,0,1,0-4,.89A5.4,5.4,0,0,0,580.54,143.65Z"/><path class="cls-22" d="M580.54,143.65a5.4,5.4,0,1,0-4,.89A5.4,5.4,0,0,0,580.54,143.65Z"/></g><g class="cls-37"><path class="cls-15" d="M1060.92,151.13a5.4,5.4,0,1,0-4,.89A5.4,5.4,0,0,0,1060.92,151.13Z"/><path class="cls-16" d="M1060.92,151.13a5.4,5.4,0,1,0-4,.89A5.4,5.4,0,0,0,1060.92,151.13Z"/></g><g class="cls-38"><path class="cls-28" d="M1003.45,259.29a5.4,5.4,0,1,0-4,.89A5.4,5.4,0,0,0,1003.45,259.29Z"/><path class="cls-29" d="M1003.45,259.29a5.4,5.4,0,1,0-4,.89A5.4,5.4,0,0,0,1003.45,259.29Z"/></g><g class="cls-39"><path class="cls-15" d="M447.29,232.33a5.4,5.4,0,1,0-4,.89A5.4,5.4,0,0,0,447.29,232.33Z"/><path class="cls-16" d="M447.29,232.33a5.4,5.4,0,1,0-4,.89A5.4,5.4,0,0,0,447.29,232.33Z"/></g><g class="cls-40"><path class="cls-41" d="M239,279.42a5.4,5.4,0,1,0-4,.89A5.4,5.4,0,0,0,239,279.42Z"/><path class="cls-42" d="M239,279.42a5.4,5.4,0,1,0-4,.89A5.4,5.4,0,0,0,239,279.42Z"/></g><g class="cls-43"><path class="cls-9" d="M842.35,140.38a5.4,5.4,0,1,0-4,.89A5.4,5.4,0,0,0,842.35,140.38Z"/><path class="cls-10" d="M842.35,140.38a5.4,5.4,0,1,0-4,.89A5.4,5.4,0,0,0,842.35,140.38Z"/></g><g class="cls-44"><path class="cls-15" d="M315.63,375.12a5.4,5.4,0,1,0-4,.89A5.4,5.4,0,0,0,315.63,375.12Z"/><path class="cls-16" d="M315.63,375.12a5.4,5.4,0,1,0-4,.89A5.4,5.4,0,0,0,315.63,375.12Z"/></g><g class="cls-45"><path class="cls-46" d="M341.36,181.48a5.4,5.4,0,1,0-4,.89A5.4,5.4,0,0,0,341.36,181.48Z"/><path class="cls-47" d="M341.36,181.48a5.4,5.4,0,1,0-4,.89A5.4,5.4,0,0,0,341.36,181.48Z"/></g><g class="cls-48"><path class="cls-49" d="M972.7,191.75a5.4,5.4,0,1,0-4,.89A5.4,5.4,0,0,0,972.7,191.75Z"/><path class="cls-50" d="M972.7,191.75a5.4,5.4,0,1,0-4,.89A5.4,5.4,0,0,0,972.7,191.75Z"/></g><g class="cls-51"><path class="cls-15" d="M973.14,157.93a5.4,5.4,0,1,0-4,.89A5.4,5.4,0,0,0,973.14,157.93Z"/><path class="cls-16" d="M973.14,157.93a5.4,5.4,0,1,0-4,.89A5.4,5.4,0,0,0,973.14,157.93Z"/></g><g class="cls-52"><path class="cls-41" d="M255.28,169.56a5.4,5.4,0,1,0-4,.89A5.4,5.4,0,0,0,255.28,169.56Z"/><path class="cls-42" d="M255.28,169.56a5.4,5.4,0,1,0-4,.89A5.4,5.4,0,0,0,255.28,169.56Z"/></g><g class="cls-53"><path class="cls-15" d="M1019.58,110.71a5.4,5.4,0,1,0-4,.89A5.4,5.4,0,0,0,1019.58,110.71Z"/><path class="cls-16" d="M1019.58,110.71a5.4,5.4,0,1,0-4,.89A5.4,5.4,0,0,0,1019.58,110.71Z"/></g><g class="cls-54"><path class="cls-55" d="M458.89,111a5.4,5.4,0,1,0-4,.89A5.4,5.4,0,0,0,458.89,111Z"/><path class="cls-56" d="M458.89,111a5.4,5.4,0,1,0-4,.89A5.4,5.4,0,0,0,458.89,111Z"/></g><g class="cls-57"><path class="cls-15" d="M455.58,28.63a5.4,5.4,0,1,0-4,.89A5.4,5.4,0,0,0,455.58,28.63Z"/><path class="cls-16" d="M455.58,28.63a5.4,5.4,0,1,0-4,.89A5.4,5.4,0,0,0,455.58,28.63Z"/></g><g class="cls-58"><path class="cls-15" d="M322,245.29a5.4,5.4,0,1,0-4,.89A5.4,5.4,0,0,0,322,245.29Z"/><path class="cls-16" d="M322,245.29a5.4,5.4,0,1,0-4,.89A5.4,5.4,0,0,0,322,245.29Z"/></g><g class="cls-59"><path class="cls-15" d="M297.62,74.27a5.4,5.4,0,1,0-4,.89A5.4,5.4,0,0,0,297.62,74.27Z"/><path class="cls-16" d="M297.62,74.27a5.4,5.4,0,1,0-4,.89A5.4,5.4,0,0,0,297.62,74.27Z"/></g><g class="cls-60"><path class="cls-61" d="M241.26,381.12a5.4,5.4,0,1,0-4,.89A5.4,5.4,0,0,0,241.26,381.12Z"/><path class="cls-62" d="M241.26,381.12a5.4,5.4,0,1,0-4,.89A5.4,5.4,0,0,0,241.26,381.12Z"/></g><g class="cls-63"><path class="cls-21" d="M535.41,173a5.4,5.4,0,1,0-4,.89A5.4,5.4,0,0,0,535.41,173Z"/><path class="cls-22" d="M535.41,173a5.4,5.4,0,1,0-4,.89A5.4,5.4,0,0,0,535.41,173Z"/></g><g class="cls-64"><path class="cls-61" d="M32.47,217.78a5.4,5.4,0,1,0-4,.89A5.4,5.4,0,0,0,32.47,217.78Z"/><path class="cls-62" d="M32.47,217.78a5.4,5.4,0,1,0-4,.89A5.4,5.4,0,0,0,32.47,217.78Z"/></g><g class="cls-65"><path class="cls-21" d="M194.42,349.77a5.4,5.4,0,1,0-4,.89A5.4,5.4,0,0,0,194.42,349.77Z"/><path class="cls-22" d="M194.42,349.77a5.4,5.4,0,1,0-4,.89A5.4,5.4,0,0,0,194.42,349.77Z"/></g><g class="cls-66"><path class="cls-49" d="M184.18,326.37a5.4,5.4,0,1,0-4,.89A5.4,5.4,0,0,0,184.18,326.37Z"/><path class="cls-50" d="M184.18,326.37a5.4,5.4,0,1,0-4,.89A5.4,5.4,0,0,0,184.18,326.37Z"/></g><g class="cls-67"><path class="cls-21" d="M229.26,203a5.4,5.4,0,1,0-4,.89A5.4,5.4,0,0,0,229.26,203Z"/><path class="cls-22" d="M229.26,203a5.4,5.4,0,1,0-4,.89A5.4,5.4,0,0,0,229.26,203Z"/></g><g class="cls-68"><path class="cls-15" d="M135.45,280.79a5.4,5.4,0,1,0-4,.89A5.4,5.4,0,0,0,135.45,280.79Z"/><path class="cls-16" d="M135.45,280.79a5.4,5.4,0,1,0-4,.89A5.4,5.4,0,0,0,135.45,280.79Z"/></g><g class="cls-69"><path class="cls-15" d="M173,54.9a5.4,5.4,0,1,0-4,.89A5.4,5.4,0,0,0,173,54.9Z"/><path class="cls-16" d="M173,54.9a5.4,5.4,0,1,0-4,.89A5.4,5.4,0,0,0,173,54.9Z"/></g><g class="cls-70"><path class="cls-71" d="M200.52,232.46a5.4,5.4,0,1,0-4,.89A5.4,5.4,0,0,0,200.52,232.46Z"/><path class="cls-72" d="M200.52,232.46a5.4,5.4,0,1,0-4,.89A5.4,5.4,0,0,0,200.52,232.46Z"/></g><g class="cls-73"><path class="cls-46" d="M376.4,50.3a5.4,5.4,0,1,0-4,.89A5.4,5.4,0,0,0,376.4,50.3Z"/><path class="cls-47" d="M376.4,50.3a5.4,5.4,0,1,0-4,.89A5.4,5.4,0,0,0,376.4,50.3Z"/></g><g class="cls-74"><path class="cls-46" d="M450.9,276.38a5.4,5.4,0,1,0-4,.89A5.4,5.4,0,0,0,450.9,276.38Z"/><path class="cls-47" d="M450.9,276.38a5.4,5.4,0,1,0-4,.89A5.4,5.4,0,0,0,450.9,276.38Z"/></g><g class="cls-75"><path class="cls-15" d="M381.28,136.79a5.4,5.4,0,1,0-4,.89A5.4,5.4,0,0,0,381.28,136.79Z"/><path class="cls-16" d="M381.28,136.79a5.4,5.4,0,1,0-4,.89A5.4,5.4,0,0,0,381.28,136.79Z"/></g><g class="cls-76"><path class="cls-15" d="M161.55,96.92a5.4,5.4,0,1,0-4,.89A5.4,5.4,0,0,0,161.55,96.92Z"/><path class="cls-16" d="M161.55,96.92a5.4,5.4,0,1,0-4,.89A5.4,5.4,0,0,0,161.55,96.92Z"/></g><g class="cls-77"><path class="cls-28" d="M917.15,199.27a5.4,5.4,0,1,0-4,.89A5.4,5.4,0,0,0,917.15,199.27Z"/><path class="cls-29" d="M917.15,199.27a5.4,5.4,0,1,0-4,.89A5.4,5.4,0,0,0,917.15,199.27Z"/></g><g class="cls-78"><path class="cls-15" d="M119.87,377.12a5.4,5.4,0,1,0-4,.89A5.4,5.4,0,0,0,119.87,377.12Z"/><path class="cls-16" d="M119.87,377.12a5.4,5.4,0,1,0-4,.89A5.4,5.4,0,0,0,119.87,377.12Z"/></g><g class="cls-79"><path class="cls-21" d="M247.5,126.09a5.4,5.4,0,1,0-4,.89A5.4,5.4,0,0,0,247.5,126.09Z"/><path class="cls-22" d="M247.5,126.09a5.4,5.4,0,1,0-4,.89A5.4,5.4,0,0,0,247.5,126.09Z"/></g><g class="cls-80"><path class="cls-15" d="M939.17,289.5a5.4,5.4,0,1,0-4,.89A5.4,5.4,0,0,0,939.17,289.5Z"/><path class="cls-16" d="M939.17,289.5a5.4,5.4,0,1,0-4,.89A5.4,5.4,0,0,0,939.17,289.5Z"/></g><g class="cls-81"><path class="cls-15" d="M1062.77,179.12a5.4,5.4,0,1,0-4,.89A5.4,5.4,0,0,0,1062.77,179.12Z"/><path class="cls-16" d="M1062.77,179.12a5.4,5.4,0,1,0-4,.89A5.4,5.4,0,0,0,1062.77,179.12Z"/></g><g class="cls-82"><path class="cls-15" d="M897.28,225.33a5.4,5.4,0,1,0-4,.89A5.4,5.4,0,0,0,897.28,225.33Z"/><path class="cls-16" d="M897.28,225.33a5.4,5.4,0,1,0-4,.89A5.4,5.4,0,0,0,897.28,225.33Z"/></g><g class="cls-83"><path class="cls-61" d="M224.57,27.93a5.4,5.4,0,1,0-4,.89A5.4,5.4,0,0,0,224.57,27.93Z"/><path class="cls-62" d="M224.57,27.93a5.4,5.4,0,1,0-4,.89A5.4,5.4,0,0,0,224.57,27.93Z"/></g><g class="cls-84"><path class="cls-28" d="M126.57,319.49a5.4,5.4,0,1,0-4,.89A5.4,5.4,0,0,0,126.57,319.49Z"/><path class="cls-29" d="M126.57,319.49a5.4,5.4,0,1,0-4,.89A5.4,5.4,0,0,0,126.57,319.49Z"/></g><g class="cls-85"><path class="cls-61" d="M692.39,312.49a5.4,5.4,0,1,0-4,.89A5.4,5.4,0,0,0,692.39,312.49Z"/><path class="cls-62" d="M692.39,312.49a5.4,5.4,0,1,0-4,.89A5.4,5.4,0,0,0,692.39,312.49Z"/></g><g class="cls-86"><path class="cls-15" d="M910.67,249.39a5.4,5.4,0,1,0-4,.89A5.4,5.4,0,0,0,910.67,249.39Z"/><path class="cls-16" d="M910.67,249.39a5.4,5.4,0,1,0-4,.89A5.4,5.4,0,0,0,910.67,249.39Z"/></g><g class="cls-87"><path class="cls-88" d="M984.8,184.14a5.4,5.4,0,1,0-4,.89A5.4,5.4,0,0,0,984.8,184.14Z"/><path class="cls-89" d="M984.8,184.14a5.4,5.4,0,1,0-4,.89A5.4,5.4,0,0,0,984.8,184.14Z"/></g><g class="cls-90"><path class="cls-15" d="M153.37,308.86a5.4,5.4,0,1,0-4,.89A5.4,5.4,0,0,0,153.37,308.86Z"/><path class="cls-16" d="M153.37,308.86a5.4,5.4,0,1,0-4,.89A5.4,5.4,0,0,0,153.37,308.86Z"/></g><g class="cls-91"><path class="cls-46" d="M331,146.81a5.4,5.4,0,1,0-4,.89A5.4,5.4,0,0,0,331,146.81Z"/><path class="cls-47" d="M331,146.81a5.4,5.4,0,1,0-4,.89A5.4,5.4,0,0,0,331,146.81Z"/></g><g class="cls-92"><path class="cls-46" d="M429.69,25.74a5.4,5.4,0,1,0-4,.89A5.4,5.4,0,0,0,429.69,25.74Z"/><path class="cls-47" d="M429.69,25.74a5.4,5.4,0,1,0-4,.89A5.4,5.4,0,0,0,429.69,25.74Z"/></g><g class="cls-93"><path class="cls-46" d="M905.94,176.3a5.4,5.4,0,1,0-4,.89A5.4,5.4,0,0,0,905.94,176.3Z"/><path class="cls-47" d="M905.94,176.3a5.4,5.4,0,1,0-4,.89A5.4,5.4,0,0,0,905.94,176.3Z"/></g><g class="cls-94"><path class="cls-15" d="M290.12,384.61a5.4,5.4,0,1,0-4,.89A5.4,5.4,0,0,0,290.12,384.61Z"/><path class="cls-16" d="M290.12,384.61a5.4,5.4,0,1,0-4,.89A5.4,5.4,0,0,0,290.12,384.61Z"/></g><g class="cls-95"><path class="cls-96" d="M334.88,199.57a5.4,5.4,0,1,0-4,.89A5.4,5.4,0,0,0,334.88,199.57Z"/><path class="cls-97" d="M334.88,199.57a5.4,5.4,0,1,0-4,.89A5.4,5.4,0,0,0,334.88,199.57Z"/></g><g class="cls-98"><path class="cls-21" d="M272.09,295.58a5.4,5.4,0,1,0-4,.89A5.4,5.4,0,0,0,272.09,295.58Z"/><path class="cls-22" d="M272.09,295.58a5.4,5.4,0,1,0-4,.89A5.4,5.4,0,0,0,272.09,295.58Z"/></g><g class="cls-99"><path class="cls-25" d="M181.67,250.3a5.4,5.4,0,1,0-4,.89A5.4,5.4,0,0,0,181.67,250.3Z"/><path class="cls-26" d="M181.67,250.3a5.4,5.4,0,1,0-4,.89A5.4,5.4,0,0,0,181.67,250.3Z"/></g><g class="cls-100"><path class="cls-15" d="M350.59,6.43a5.4,5.4,0,1,0-4,.89A5.4,5.4,0,0,0,350.59,6.43Z"/><path class="cls-16" d="M350.59,6.43a5.4,5.4,0,1,0-4,.89A5.4,5.4,0,0,0,350.59,6.43Z"/></g><g class="cls-101"><path class="cls-88" d="M262.56,146.46a5.4,5.4,0,1,0-4,.89A5.4,5.4,0,0,0,262.56,146.46Z"/><path class="cls-89" d="M262.56,146.46a5.4,5.4,0,1,0-4,.89A5.4,5.4,0,0,0,262.56,146.46Z"/></g><g class="cls-102"><path class="cls-46" d="M159.51,156.49a5.4,5.4,0,1,0-4,.89A5.4,5.4,0,0,0,159.51,156.49Z"/><path class="cls-47" d="M159.51,156.49a5.4,5.4,0,1,0-4,.89A5.4,5.4,0,0,0,159.51,156.49Z"/></g><g class="cls-103"><path class="cls-41" d="M277,252.08a5.4,5.4,0,1,0-4,.89A5.4,5.4,0,0,0,277,252.08Z"/><path class="cls-42" d="M277,252.08a5.4,5.4,0,1,0-4,.89A5.4,5.4,0,0,0,277,252.08Z"/></g><g class="cls-104"><path class="cls-15" d="M27.14,408.33a5.4,5.4,0,1,0-4,.89A5.4,5.4,0,0,0,27.14,408.33Z"/><path class="cls-16" d="M27.14,408.33a5.4,5.4,0,1,0-4,.89A5.4,5.4,0,0,0,27.14,408.33Z"/></g><g class="cls-105"><path class="cls-46" d="M240.64,349.8a5.4,5.4,0,1,0-4,.89A5.4,5.4,0,0,0,240.64,349.8Z"/><path class="cls-47" d="M240.64,349.8a5.4,5.4,0,1,0-4,.89A5.4,5.4,0,0,0,240.64,349.8Z"/></g><g class="cls-106"><path class="cls-46" d="M126.43,119.42a5.4,5.4,0,1,0-4,.89A5.4,5.4,0,0,0,126.43,119.42Z"/><path class="cls-47" d="M126.43,119.42a5.4,5.4,0,1,0-4,.89A5.4,5.4,0,0,0,126.43,119.42Z"/></g><g class="cls-107"><path class="cls-108" d="M260.45,235.36a5.4,5.4,0,1,0-4,.89A5.4,5.4,0,0,0,260.45,235.36Z"/><path class="cls-109" d="M260.45,235.36a5.4,5.4,0,1,0-4,.89A5.4,5.4,0,0,0,260.45,235.36Z"/></g><g class="cls-110"><path class="cls-111" d="M207.16,260a5.4,5.4,0,1,0-4,.89A5.4,5.4,0,0,0,207.16,260Z"/><path class="cls-112" d="M207.16,260a5.4,5.4,0,1,0-4,.89A5.4,5.4,0,0,0,207.16,260Z"/></g><g class="cls-113"><path class="cls-15" d="M1036.35,152.37a5.4,5.4,0,1,0-4,.89A5.4,5.4,0,0,0,1036.35,152.37Z"/><path class="cls-16" d="M1036.35,152.37a5.4,5.4,0,1,0-4,.89A5.4,5.4,0,0,0,1036.35,152.37Z"/></g><g class="cls-114"><path class="cls-41" d="M789.94,229.17a5.4,5.4,0,1,0-4,.89A5.4,5.4,0,0,0,789.94,229.17Z"/><path class="cls-42" d="M789.94,229.17a5.4,5.4,0,1,0-4,.89A5.4,5.4,0,0,0,789.94,229.17Z"/></g><g class="cls-115"><path class="cls-46" d="M199,178.78a5.4,5.4,0,1,0-4,.89A5.4,5.4,0,0,0,199,178.78Z"/><path class="cls-47" d="M199,178.78a5.4,5.4,0,1,0-4,.89A5.4,5.4,0,0,0,199,178.78Z"/></g><g class="cls-116"><path class="cls-15" d="M1042.94,124.43a5.4,5.4,0,1,0-4,.89A5.4,5.4,0,0,0,1042.94,124.43Z"/><path class="cls-16" d="M1042.94,124.43a5.4,5.4,0,1,0-4,.89A5.4,5.4,0,0,0,1042.94,124.43Z"/></g><g class="cls-117"><path class="cls-46" d="M878.16,171.66a5.4,5.4,0,1,0-4,.89A5.4,5.4,0,0,0,878.16,171.66Z"/><path class="cls-47" d="M878.16,171.66a5.4,5.4,0,1,0-4,.89A5.4,5.4,0,0,0,878.16,171.66Z"/></g><g class="cls-118"><path class="cls-46" d="M928,219.66a5.4,5.4,0,1,0-4,.89A5.4,5.4,0,0,0,928,219.66Z"/><path class="cls-47" d="M928,219.66a5.4,5.4,0,1,0-4,.89A5.4,5.4,0,0,0,928,219.66Z"/></g><g class="cls-119"><path class="cls-15" d="M85.08,355.42a5.4,5.4,0,1,0-4,.89A5.4,5.4,0,0,0,85.08,355.42Z"/><path class="cls-16" d="M85.08,355.42a5.4,5.4,0,1,0-4,.89A5.4,5.4,0,0,0,85.08,355.42Z"/></g><g class="cls-120"><path class="cls-15" d="M558.77,91.4a5.4,5.4,0,1,0-4,.89A5.4,5.4,0,0,0,558.77,91.4Z"/><path class="cls-16" d="M558.77,91.4a5.4,5.4,0,1,0-4,.89A5.4,5.4,0,0,0,558.77,91.4Z"/></g><g class="cls-121"><path class="cls-9" d="M416.94,174.46a5.4,5.4,0,1,0-4,.89A5.4,5.4,0,0,0,416.94,174.46Z"/><path class="cls-10" d="M416.94,174.46a5.4,5.4,0,1,0-4,.89A5.4,5.4,0,0,0,416.94,174.46Z"/></g><g class="cls-122"><path class="cls-46" d="M556.37,34.93a5.4,5.4,0,1,0-4,.89A5.4,5.4,0,0,0,556.37,34.93Z"/><path class="cls-47" d="M556.37,34.93a5.4,5.4,0,1,0-4,.89A5.4,5.4,0,0,0,556.37,34.93Z"/></g><g class="cls-123"><path class="cls-46" d="M375.59,196.18a5.4,5.4,0,1,0-4,.89A5.4,5.4,0,0,0,375.59,196.18Z"/><path class="cls-47" d="M375.59,196.18a5.4,5.4,0,1,0-4,.89A5.4,5.4,0,0,0,375.59,196.18Z"/></g><g class="cls-124"><path class="cls-21" d="M216,309.23a5.4,5.4,0,1,0-4,.89A5.4,5.4,0,0,0,216,309.23Z"/><path class="cls-22" d="M216,309.23a5.4,5.4,0,1,0-4,.89A5.4,5.4,0,0,0,216,309.23Z"/></g><g class="cls-125"><path class="cls-15" d="M156.6,197a5.4,5.4,0,1,0-4,.89A5.4,5.4,0,0,0,156.6,197Z"/><path class="cls-16" d="M156.6,197a5.4,5.4,0,1,0-4,.89A5.4,5.4,0,0,0,156.6,197Z"/></g><g class="cls-126"><path class="cls-21" d="M662.8,91.51a5.4,5.4,0,1,0-4,.89A5.4,5.4,0,0,0,662.8,91.51Z"/><path class="cls-22" d="M662.8,91.51a5.4,5.4,0,1,0-4,.89A5.4,5.4,0,0,0,662.8,91.51Z"/></g><g class="cls-127"><path class="cls-21" d="M103.7,167.17a5.4,5.4,0,1,0-4,.89A5.4,5.4,0,0,0,103.7,167.17Z"/><path class="cls-22" d="M103.7,167.17a5.4,5.4,0,1,0-4,.89A5.4,5.4,0,0,0,103.7,167.17Z"/></g><g class="cls-128"><path class="cls-15" d="M932.92,93.24a5.4,5.4,0,1,0-4,.89A5.4,5.4,0,0,0,932.92,93.24Z"/><path class="cls-16" d="M932.92,93.24a5.4,5.4,0,1,0-4,.89A5.4,5.4,0,0,0,932.92,93.24Z"/></g><g class="cls-129"><path class="cls-41" d="M262.13,320.39a5.4,5.4,0,1,0-4,.89A5.4,5.4,0,0,0,262.13,320.39Z"/><path class="cls-42" d="M262.13,320.39a5.4,5.4,0,1,0-4,.89A5.4,5.4,0,0,0,262.13,320.39Z"/></g><g class="cls-130"><path class="cls-61" d="M324.43,17.88a5.4,5.4,0,1,0-4,.89A5.4,5.4,0,0,0,324.43,17.88Z"/><path class="cls-62" d="M324.43,17.88a5.4,5.4,0,1,0-4,.89A5.4,5.4,0,0,0,324.43,17.88Z"/></g><g class="cls-131"><path class="cls-15" d="M936.33,253.33a5.4,5.4,0,1,0-4,.89A5.4,5.4,0,0,0,936.33,253.33Z"/><path class="cls-16" d="M936.33,253.33a5.4,5.4,0,1,0-4,.89A5.4,5.4,0,0,0,936.33,253.33Z"/></g><g class="cls-132"><path class="cls-61" d="M359.64,302.32a5.4,5.4,0,1,0-4,.89A5.4,5.4,0,0,0,359.64,302.32Z"/><path class="cls-62" d="M359.64,302.32a5.4,5.4,0,1,0-4,.89A5.4,5.4,0,0,0,359.64,302.32Z"/></g><g class="cls-133"><path class="cls-46" d="M955,114.65a5.4,5.4,0,1,0-4,.89A5.4,5.4,0,0,0,955,114.65Z"/><path class="cls-47" d="M955,114.65a5.4,5.4,0,1,0-4,.89A5.4,5.4,0,0,0,955,114.65Z"/></g><g class="cls-134"><path class="cls-15" d="M1049.17,241.28a5.4,5.4,0,1,0-4,.89A5.4,5.4,0,0,0,1049.17,241.28Z"/><path class="cls-16" d="M1049.17,241.28a5.4,5.4,0,1,0-4,.89A5.4,5.4,0,0,0,1049.17,241.28Z"/></g><g class="cls-135"><path class="cls-41" d="M310.6,321.38a5.4,5.4,0,1,0-4,.89A5.4,5.4,0,0,0,310.6,321.38Z"/><path class="cls-42" d="M310.6,321.38a5.4,5.4,0,1,0-4,.89A5.4,5.4,0,0,0,310.6,321.38Z"/></g><g class="cls-136"><path class="cls-15" d="M1066,221.71a5.4,5.4,0,1,0-4,.89A5.4,5.4,0,0,0,1066,221.71Z"/><path class="cls-16" d="M1066,221.71a5.4,5.4,0,1,0-4,.89A5.4,5.4,0,0,0,1066,221.71Z"/></g><g class="cls-137"><path class="cls-9" d="M265.17,18.21a5.4,5.4,0,1,0-4,.89A5.4,5.4,0,0,0,265.17,18.21Z"/><path class="cls-10" d="M265.17,18.21a5.4,5.4,0,1,0-4,.89A5.4,5.4,0,0,0,265.17,18.21Z"/></g><g class="cls-138"><path class="cls-46" d="M545.35,315a5.4,5.4,0,1,0-4,.89A5.4,5.4,0,0,0,545.35,315Z"/><path class="cls-47" d="M545.35,315a5.4,5.4,0,1,0-4,.89A5.4,5.4,0,0,0,545.35,315Z"/></g></g><line class="cls-139" x1="253.67" y1="914.87" x2="-418.38" y2="-46.73"/><line class="cls-139" x1="1240.74" y1="225.02" x2="568.69" y2="-736.58"/><line class="cls-139" x1="253.67" y1="914.87" x2="1240.74" y2="225.02"/></g></g></g><rect class="cls-140" x="0.58" y="0.77" width="1133.28" height="424.43"/></g></g></svg>